<svg xmlns="http://www.w3.org/2000/svg" viewBox="0 0 412.949 322.9134"><defs><style>.cls-1{fill:#eee;}.cls-2{fill:#f0493f;stroke:#f0493f;stroke-miterlimit:10;stroke-width:8.7207px;}</style></defs><g id="Layer_2" data-name="Layer 2"><g id="Layer_1-2" data-name="Layer 1"><g id="Layer_2-2" data-name="Layer 2"><g id="Layer_1-2-2" data-name="Layer 1-2"><path class="cls-1" d="M212.87,294.4416q-2.85.127-5.6924.3039c-12.2761.7655-24.1575,2.6922-36.3081,4.186-4.688.5763-9.4347,1.33-13.7021,3.354a19.6018,19.6018,0,0,0-7.3434,6.0578,8.67,8.67,0,0,0-1.5587,7.3844c1.5647,5.0662,7.7086,6.6863,12.3454,6.9854,15.5189,1.0011,30.157-3.1558,45.2131-5.9435a171.0962,171.0962,0,0,1,48.1224-2.0185c13.448,1.3469,26.6592,4.2872,40,6.36,8.6228,1.34,24.7967,5.4751,28.2072-6.31a199.7528,199.7528,0,0,0,6.8769-40.8628,2.6661,2.6661,0,0,1,1.9809-2.4044c1.6694-.4484,3.2516-.8845,4.8462-1.2458,49.7455-11.3743,81.8875-57.5442,76.5056-109.881-4.9833-48.3-47.4283-86.8708-96.9495-87.7677-4.5223-.0873-6.6775-1.3954-8.6584-5.5439C285.9993,23.5789,241.8725-3.1314,196.9359.2946,148.511,4.0321,108.6823,35.5761,94.318,82.4437c-1.9809,6.4409-4.8711,7.4126-10.8635,7.6743-35.9044,1.62-62.2036,18.9488-76.082,51.8757s-7.9607,64.0474,16.0462,90.7079A78.76,78.76,0,0,0,63.073,256.97a18.9117,18.9117,0,0,0,23.5708-18.326v-5.8554a2.666,2.666,0,0,0-2.3795-2.5913c-40.2025-3.2765-58.7153-37.7856-52.536-66.6885,5.5688-26.0625,32.59-47.0421,54.33-42.9807a2.6287,2.6287,0,0,1,2.13,2.23c.9094,6.7648,1.8189,13.5172,2.7657,20.5934a2.6785,2.6785,0,0,0,3.0237,2.2816q.1084-.0152.2154-.0392l9.8917-2.2424a18.9489,18.9489,0,0,0,14.6758-19.497,91.2324,91.2324,0,0,1,3.7374-31.3323c6.9517-22.7361,21.1789-40.8379,43.8029-53.8068l.3364-.1744c53.9438-24.0194,97.7094,8.8453,110.5288,37.1626a2.6162,2.6162,0,0,1-1.1337,3.3638l-2.99,1.62a18.9114,18.9114,0,0,0-6.3785,27.5576l3.7374,5.1577a2.4916,2.4916,0,0,0,3.2142.7973c23.21-11.5362,32.3913-13.38,50.58-10.7638,32.9519,4.7216,58.7652,34.6586,59.1016,68.52.3488,34.1477-25.19,64.7824-58.4039,69.7657a14.3774,14.3774,0,0,1-8.347-1.2459,162.8052,162.8052,0,0,0-62.2908-18.8492,178.4534,178.4534,0,0,0-43.5039.7974,16.1207,16.1207,0,0,0-13.5436,18.3394q.1143.76.3006,1.5064c.8845,3.563,1.7566,7.0638,2.6162,10.4773a2.3919,2.3919,0,0,0,1.5947,1.7317.3977.3977,0,0,0,.2242,0c2.4916-.4485,4.9085-.9468,7.3752-1.37,28.9777-4.896,57.1456-2.4916,84.1673,9.5554,2.1677.9718,5.245,3.4011,5.22,5.12-.1,7.4749-.8845,14.8875-1.57,22.6513-.2822,3.0049-.03,6.0429-1.6269,8.6781l-26.5471-2.7952A378.042,378.042,0,0,0,212.87,294.4416Z"/><path class="cls-2" d="M167.5973,201.1122c-5.4656-4.0413-17.7428,3.293-27.4213,16.3827-7.8184,10.5738-11.4519,21.5768-9.7162,27.5814l-11.5742,15.6561c-7.9611,10.7763-15.8972,21.5526-23.9451,32.2542a14.1438,14.1438,0,0,0-1.3577,2.2174c-.7849,1.6822-1.0462,3.4386.2,4.6845a3.2521,3.2521,0,0,0,3.1889.61,8.5885,8.5885,0,0,0,4.0866-3.6132c11.6032-15.9362,23.2633-31.5195,34.8877-47.3814,6.2332.2709,15.9956-6.5152,24.0242-17.3735C169.6492,219.0416,173.0638,205.154,167.5973,201.1122Z"/></g></g></g></g></svg>