<svg xmlns="http://www.w3.org/2000/svg" viewBox="0 0 735.9883 239.5702"><defs><style>.cls-1,.cls-3{fill:#f0493f;}.cls-2{fill:#fff;}.cls-3{stroke:#f0493f;stroke-miterlimit:10;stroke-width:2.4845px;}</style></defs><g id="Layer_2" data-name="Layer 2"><g id="Layer_1-2" data-name="Layer 1"><path class="cls-1" d="M14.8568,224.4826,16.11,211.595q13.78,4.1142,24.5226,4.1164,17.0007,0,22.283-7.16,5.2779-7.16,6.3537-11.8129a59.084,59.084,0,0,0,1.0747-12.7075V153.2446q0-15.57-7.3383-24.52-7.3416-8.947-20.2259-8.9493a26.7616,26.7616,0,0,0-19.9578,8.1427,27.6845,27.6845,0,0,0-7.9647,20.1358,27.31,27.31,0,0,0,7.8746,19.8677,26.4039,26.4039,0,0,0,19.69,8.0548,26.387,26.387,0,0,0,10.8284-1.9692q4.3845-1.9681,11.3668-8.0548v14.8568a54.3118,54.3118,0,0,1-12.2613,7.3383,33.5235,33.5235,0,0,1-12.0811,1.9692q-16.47,0-28.3708-12.4393A41.3668,41.3668,0,0,1,0,148.0535a40.8536,40.8536,0,0,1,12.4415-29.98,41.2792,41.2792,0,0,1,30.3378-12.4392q18.6128,0,30.2477,12.7074,11.6337,12.7117,11.6349,33.1135v35.0806q0,19.8687-10.9185,30.9641T43.3155,228.599A115.22,115.22,0,0,1,14.8568,224.4826Z"/><path class="cls-1" d="M138.7134,105.6347a40.224,40.224,0,0,1,29.7115,12.5294,41.5133,41.5133,0,0,1,12.3514,30.2476q0,17.0075-12.3514,29.3554a40.5081,40.5081,0,0,1-29.7115,12.3492,41.73,41.73,0,0,1-30.4279-12.3492,40.8374,40.8374,0,0,1-12.5294-30.25,40.0181,40.0181,0,0,1,12.5294-29.5335A41.73,41.73,0,0,1,138.7134,105.6347Zm0,14.14a27.3676,27.3676,0,0,0-19.8676,8.0548,26.4808,26.4808,0,0,0-8.2328,19.6875,27.8294,27.8294,0,0,0,28.4587,28.4587q10.74,0,18.793-8.2328a26.7421,26.7421,0,0,0,8.0547-19.3315,28.2911,28.2911,0,0,0-7.9646-20.3138A25.6574,25.6574,0,0,0,138.7134,119.775Z"/><path class="cls-1" d="M247.8935,107.2456h14.3183v46.1792q0,16.6447-9.6657,26.6676-9.6657,10.0282-25.595,10.0239-15.7514,0-25.4148-10.0239-9.6659-10.0218-9.6658-26.6676V107.2456h14.3184v42.7771q0,12.3525,5.3691,19.1512,5.37,6.8043,15.2151,6.8021a20.6411,20.6411,0,0,0,10.1118-2.5055,21.5091,21.5091,0,0,0,7.7867-7.6064q3.2208-5.1032,3.2219-17.0941Z"/><path class="cls-1" d="M295.86,188.5054H281.5411v-81.26H295.86V121.564q8.41-16.1073,26.4895-16.1074h5.3691v13.4811h-2.8637q-15.0326,0-22.0149,7.91-6.9789,7.9119-6.98,24.806Z"/><path class="cls-1" d="M449.6077,188.5054H435.2894V139.8207q0-9.303-4.6527-14.6766-4.6581-5.37-12.71-5.3691-9.4877,0-12.8854,5.101-3.4054,5.1-4.1186,8.2328a45.6188,45.6188,0,0,0-.7143,9.3976v45.999h-14.32v-47.432q0-21.2961-18.0766-21.2984-9.1282,0-12.6195,5.1911-3.4878,5.1923-4.0263,7.8746a51.5627,51.5627,0,0,0-.5362,8.9492v46.7155H336.3091V139.6427q0-9.8437,1.7011-15.0348,1.6977-5.189,8.3229-12.0833,6.62-6.8867,20.7622-6.89,17.1821,0,26.1313,15.0348,8.5942-15.036,25.595-15.0348,14.1393,0,22.4633,8.8591,8.324,8.8614,8.3228,23.716Z"/><path class="cls-1" d="M535.1663,150.9172l10.0218,5.5493q-9.847,33.652-42.0628,33.65a41.1487,41.1487,0,0,1-29.98-12.2612,40.4661,40.4661,0,0,1-12.4415-29.98q0-17.8974,12.1712-30.07t30.25-12.1711q23.9829,0,37.5859,24.1621l-52.0845,34.008-6.0878-10.5624,39.5662-26.4741q-6.8043-8.2449-18.9754-8.246a26.4134,26.4134,0,0,0-19.6941,8.0548q-7.8758,8.0537-7.8746,20.4039a29.6957,29.6957,0,0,0,8.591,21.2984,27.5219,27.5219,0,0,0,20.5842,8.9493,28.2807,28.2807,0,0,0,19.1534-6.8021Q531.7653,163.6291,535.1663,150.9172Z"/><path class="cls-1" d="M569.7084,120.1332v37.9443q0,10.5624,3.7582,14.14,3.7581,3.5835,15.2128,3.58h6.9823v12.7074h-7.6965q-18.62,0-25.5951-6.4438-6.9822-6.4418-6.98-23.4479v-75.71h14.3184v24.7005h25.9533v12.5294Z"/><path class="cls-1" d="M622.1512,120.1332v37.9443q0,10.5624,3.7582,14.14,3.7581,3.5835,15.2128,3.58h6.9823v12.7074H640.408q-18.6194,0-25.5951-6.4438-6.9822-6.4418-6.98-23.4479v-75.71h14.3183v24.7005h25.9533v12.5294Z"/><path class="cls-1" d="M693.9255,105.6347a40.2238,40.2238,0,0,1,29.7114,12.5294,41.5133,41.5133,0,0,1,12.3514,30.2476q0,17.0075-12.3514,29.3554a40.5079,40.5079,0,0,1-29.7114,12.3492,41.73,41.73,0,0,1-30.4279-12.3492,40.8371,40.8371,0,0,1-12.5294-30.25,40.0177,40.0177,0,0,1,12.5294-29.5335A41.73,41.73,0,0,1,693.9255,105.6347Zm0,14.14a27.3678,27.3678,0,0,0-19.8677,8.0548,26.4808,26.4808,0,0,0-8.2328,19.6875,27.83,27.83,0,0,0,28.4587,28.4587q10.74,0,18.793-8.2328a26.7422,26.7422,0,0,0,8.0548-19.3315,28.2912,28.2912,0,0,0-7.9647-20.3138A25.6573,25.6573,0,0,0,693.9255,119.775Z"/><path class="cls-2" d="M569.8842,229.577l2.5209,1.3956q-2.4759,8.4624-10.5778,8.4613a10.34,10.34,0,0,1-7.5383-3.0834,10.1684,10.1684,0,0,1-3.13-7.5383A10.4548,10.4548,0,0,1,561.8273,218.19q6.03,0,9.4525,6.0768l-13.0986,8.5515-1.5318-2.6571,9.9514-6.657A5.8459,5.8459,0,0,0,561.83,221.43a6.648,6.648,0,0,0-4.9538,2.0264,7.0357,7.0357,0,0,0-1.98,5.1317,7.4723,7.4723,0,0,0,2.16,5.3559,6.918,6.918,0,0,0,5.1758,2.25,7.1179,7.1179,0,0,0,4.8174-1.71A9.5162,9.5162,0,0,0,569.8842,229.577Z"/><path class="cls-2" d="M575.24,239.03V235.878h8.5075a21.1453,21.1453,0,0,0,2.2043-.066,4.1985,4.1985,0,0,0,1.1934-.4505q.7418-.3824.7428-1.734,0-1.53-1.8461-2.16l-7.6064-2.6989a6.7756,6.7756,0,0,1-3.0835-1.9142,4.7793,4.7793,0,0,1-.923-3.0835q0-5.1756,7.4724-5.1757h8.191v3.1516h-8.7317q-3.2835,0-3.2856,2.2945,0,1.4406,1.8922,2.07l7.11,2.5231a8.2356,8.2356,0,0,1,3.534,2.0043,4.4892,4.4892,0,0,1,1.0131,3.0813q0,5.3108-6.7976,5.31Z"/><path class="cls-2" d="M598.69,221.8365v9.5405q0,2.6571.945,3.5559.9429.9033,3.8241.9011h1.756V239.03h-1.934q-4.6845,0-6.4372-1.62-1.7571-1.6219-1.756-5.8966V212.4741H598.69v6.2108h6.5251v3.1516Z"/><path class="cls-2" d="M610.7976,234.2143a2.6112,2.6112,0,1,1-1.8461.7648A2.5188,2.5188,0,0,1,610.7976,234.2143Z"/><path class="cls-2" d="M637.3069,235.4736V239.03H620.6985q-3.6461,0-3.6461-2.3406a4.1222,4.1222,0,0,1,1.6659-2.701l10.3075-9.002a17.1344,17.1344,0,0,0,3.3076-3.5889,6.2561,6.2561,0,0,0,.967-3.367,6,6,0,0,0-6.0306-6.05,6.2768,6.2768,0,0,0-4.501,1.71,5.7592,5.7592,0,0,0-1.8,4.3648,6.029,6.029,0,0,0,.5627,2.567,5.6977,5.6977,0,0,0,3.33,3.0372,7.7779,7.7779,0,0,0,2.3186.2924l-2.9692,2.9252a10.1017,10.1017,0,0,1-5.3339-3.2549,8.7049,8.7049,0,0,1-1.8242-5.6351,8.9032,8.9032,0,0,1,2.9714-6.824,10.5327,10.5327,0,0,1,7.4262-2.7384,9.795,9.795,0,0,1,7.0218,2.6967,8.8775,8.8775,0,0,1,2.8351,6.7009q0,5.2647-5.8636,9.8943l-8.3426,6.69c-.4308.3252-.6462.578-.6462.756,0,.2088.4044.3121,1.2176.3121Z"/><path class="cls-2" d="M661.2976,220.153v7.6856q0,5.4394-2.7472,8.5844a10.5495,10.5495,0,0,1-15.0546-.022q-2.7691-3.168-2.7692-8.5624V220.153q0-5.4822,2.7472-8.6064a9.5423,9.5423,0,0,1,7.56-3.123,9.4372,9.4372,0,0,1,7.4943,3.1692Q661.2977,214.7608,661.2976,220.153Zm-16.5645-.178v7.9515a9.4881,9.4881,0,0,0,1.6088,5.9317,5.5863,5.5863,0,0,0,4.6922,2.0659,5.9311,5.9311,0,0,0,2.8835-.7187,5.7845,5.7845,0,0,0,2.0768-1.8417,6.7955,6.7955,0,0,0,1.0286-2.3142,14.7582,14.7582,0,0,0,.2681-3.123V219.975a13.6754,13.6754,0,0,0-.3582-3.5032,7.89,7.89,0,0,0-1.7209-2.8988,5.192,5.192,0,0,0-4.1779-1.5934Q644.7343,211.98,644.7331,219.975Z"/><path class="cls-2" d="M685.0158,235.4736V239.03H668.4074q-3.6462,0-3.6461-2.3406a4.1217,4.1217,0,0,1,1.6659-2.701l10.3074-9.002a17.1354,17.1354,0,0,0,3.3077-3.5889,6.2569,6.2569,0,0,0,.967-3.367,6,6,0,0,0-6.0307-6.05,6.277,6.277,0,0,0-4.501,1.71,5.76,5.76,0,0,0-1.8,4.3648,6.03,6.03,0,0,0,.5626,2.567,5.6985,5.6985,0,0,0,3.33,3.0372,7.7788,7.7788,0,0,0,2.3186.2924l-2.9691,2.9252a10.1024,10.1024,0,0,1-5.334-3.2549,8.7054,8.7054,0,0,1-1.8241-5.6351,8.9034,8.9034,0,0,1,2.9713-6.824,10.5329,10.5329,0,0,1,7.4263-2.7384,9.7954,9.7954,0,0,1,7.0218,2.6967,8.8778,8.8778,0,0,1,2.8351,6.7009q0,5.2647-5.8636,9.8943l-8.3427,6.69c-.4308.3252-.6461.578-.6461.756,0,.2088.4043.3121,1.2175.3121Z"/><path class="cls-2" d="M689.29,239.03v-3.5559h7.6526q7.2,0,7.202-5.7406a5.442,5.442,0,0,0-.6747-2.6021,5.6763,5.6763,0,0,0-1.9582-2.0879,9.01,9.01,0,0,0-4.5691-.8285h-4.5911v-2.02l9.0921-8.5514a2.0065,2.0065,0,0,0,.3824-.5121.8593.8593,0,0,1,.1121-.22c0-.2615-.27-.3934-.8088-.3934H689.3366v-3.5559h13.1887a4.7364,4.7364,0,0,1,2.8571.7494,2.4258,2.4258,0,0,1,1.0131,2.0637,2.7132,2.7132,0,0,1-.36,1.4747,13.1544,13.1544,0,0,1-1.7077,1.8835l-6.5778,6.25a18.1448,18.1448,0,0,1,4.035.3384,9.0948,9.0948,0,0,1,2.9362,1.4,7.7235,7.7235,0,0,1,2.4879,2.8659,8.4631,8.4631,0,0,1,.9428,3.9713,8.33,8.33,0,0,1-2.7911,6.679q-2.7922,2.39-7.8328,2.3911Z"/><g id="Layer_2-2" data-name="Layer 2"><g id="Layer_1-2-2" data-name="Layer 1-2"><path class="cls-2" d="M397.0807,83.885q-.8119.0361-1.6217.0865c-3.4974.2181-6.8824.767-10.344,1.1926a12.6231,12.6231,0,0,0-3.9037.9556,5.5843,5.5843,0,0,0-2.0921,1.7258,2.47,2.47,0,0,0-.444,2.1037c.4457,1.4434,2.1961,1.9049,3.5171,1.99,4.4213.2852,8.5916-.8991,12.881-1.6933a48.7485,48.7485,0,0,1,13.71-.5751c3.8313.3838,7.5951,1.2214,11.3958,1.812,2.4566.3818,7.0644,1.56,8.036-1.7978a56.9057,56.9057,0,0,0,1.9592-11.6416.76.76,0,0,1,.5644-.685c.4756-.1277.9263-.252,1.3807-.3549,14.1722-3.24,23.3293-16.3941,21.796-31.3046-1.42-13.76-13.5121-24.749-27.62-25.0046a2.3512,2.3512,0,0,1-2.4668-1.5794C417.915,6.7175,405.3435-.8921,392.5412.0839a32.7937,32.7937,0,0,0-29.2353,23.4039c-.5643,1.835-1.3877,2.1118-3.0949,2.1864-10.229.4614-17.7215,5.3984-21.6754,14.7791S336.2676,58.7,343.107,66.2955a22.4382,22.4382,0,0,0,11.2974,6.914,5.3879,5.3879,0,0,0,6.7152-5.221V66.32a.76.76,0,0,0-.6779-.7383c-11.4535-.9335-16.7277-10.7649-14.9673-18.9992,1.5865-7.4251,9.2849-13.4021,15.4784-12.245a.7489.7489,0,0,1,.6069.6353c.2591,1.9273.5182,3.851.7879,5.867a.7632.7632,0,0,0,.8615.65q.0309-.0044.0613-.0112l2.8181-.6388a5.3985,5.3985,0,0,0,4.1811-5.5546A25.962,25.962,0,0,1,383.8136,11.03l.0958-.05c15.3684-6.843,27.8369,2.52,31.4891,10.5874a.7453.7453,0,0,1-.3229.9583l-.8519.4614a5.3884,5.3884,0,0,0-1.8172,7.8511l1.0648,1.4694a.71.71,0,0,0,.9157.2271c6.6123-3.2866,9.2281-3.8119,14.41-3.0666a20.1168,20.1168,0,0,1,16.8378,19.521c.0993,9.7286-7.1767,18.4562-16.639,19.8759a4.0958,4.0958,0,0,1-2.378-.3549,46.38,46.38,0,0,0-17.7464-5.37,50.8348,50.8348,0,0,0-12.394.2271,4.5927,4.5927,0,0,0-3.8585,5.2248q.0326.2166.0856.4292c.252,1.0151.5,2.0124.7453,2.9849a.6816.6816,0,0,0,.4544.4934.1135.1135,0,0,0,.0638,0c.71-.1278,1.3985-.27,2.1012-.39a40.8639,40.8639,0,0,1,23.9789,2.7222c.6175.2769,1.4942.969,1.4871,1.4588-.0284,2.1295-.252,4.2414-.4473,6.4532a5.5126,5.5126,0,0,1-.4635,2.4724l-7.5631-.7964A107.7066,107.7066,0,0,0,397.0807,83.885Z"/><path class="cls-3" d="M384.1828,57.2959c-1.5571-1.1514-5.0548.9381-7.8122,4.6673-2.2274,3.0125-3.2626,6.1471-2.7681,7.8578l-3.2974,4.46c-2.2681,3.07-4.529,6.14-6.8218,9.189a4.0274,4.0274,0,0,0-.3868.6318,1.1263,1.1263,0,0,0,.0568,1.3345.9263.9263,0,0,0,.9085.1739,2.447,2.447,0,0,0,1.1643-1.0293c3.3057-4.54,6.6276-8.98,9.9393-13.4988,1.7758.0772,4.5571-1.8561,6.8444-4.95C384.7674,62.4039,385.74,58.4474,384.1828,57.2959Z"/></g></g></g></g></svg>